<?xml version="1.0" encoding="UTF-8" standalone="no"?>
<!-- Generator: Adobe Illustrator 14.0.0, SVG Export Plug-In . SVG Version: 6.00 Build 43363)  -->

<svg
   xmlns:dc="http://purl.org/dc/elements/1.1/"
   xmlns:cc="http://creativecommons.org/ns#"
   xmlns:rdf="http://www.w3.org/1999/02/22-rdf-syntax-ns#"
   xmlns:svg="http://www.w3.org/2000/svg"
   xmlns="http://www.w3.org/2000/svg"
   xmlns:sodipodi="http://sodipodi.sourceforge.net/DTD/sodipodi-0.dtd"
   xmlns:inkscape="http://www.inkscape.org/namespaces/inkscape"
   version="1.1"
   id="Layer_1"
   x="0px"
   y="0px"
   width="18"
   height="18"
   viewBox="0 0 18 18"
   enable-background="new 0 0 50 50"
   xml:space="preserve"
   inkscape:version="0.91 r13725"
   sodipodi:docname="DeepHistory.svg"><metadata
     id="metadata17"><rdf:RDF><cc:Work
         rdf:about=""><dc:format>image/svg+xml</dc:format><dc:type
           rdf:resource="http://purl.org/dc/dcmitype/StillImage" /><dc:title /></cc:Work></rdf:RDF></metadata><defs
     id="defs15" /><sodipodi:namedview
     pagecolor="#ffffff"
     bordercolor="#666666"
     borderopacity="1"
     objecttolerance="10"
     gridtolerance="10"
     guidetolerance="10"
     inkscape:pageopacity="0"
     inkscape:pageshadow="2"
     inkscape:window-width="2560"
     inkscape:window-height="1315"
     id="namedview13"
     showgrid="false"
     inkscape:zoom="63.833333"
     inkscape:cx="6.2741514"
     inkscape:cy="9"
     inkscape:window-x="1680"
     inkscape:window-y="0"
     inkscape:window-maximized="1"
     inkscape:current-layer="Layer_1" /><circle
     cx="9"
     cy="9"
     id="circle3"
     style="fill:none;stroke:#000000;stroke-width:1;stroke-miterlimit:4;stroke-dasharray:none;stroke-opacity:1"
     r="7" /><g
     enable-background="new    "
     id="g5"
     transform="matrix(0.28264556,0,0,0.28264556,1.9998304,1.4770103)"><path
       d="m 14.777,14.894 0,9.937 11.487,0 0,-9.937 3.102,0 0,23.748 -3.102,0 0,-11.132 -11.487,0 0,11.132 -3.101,0 0,-23.748 3.101,0 z"
       id="path7"
       inkscape:connector-curvature="0"
       style="fill:#010101" /></g><g
     enable-background="new    "
     id="g9"
     transform="matrix(0.30398217,0,0,0.30398217,1.8431451,2.2726416)"><path
       d="m 33.82,19.828 0,-3.668 -3.697,0 0,-2.533 3.697,0 0,-3.669 2.465,0 0,3.667 3.707,0 0,2.533 -3.707,0 0,3.668 -2.465,0 z"
       id="path11"
       inkscape:connector-curvature="0"
       style="fill:#010101" /></g></svg>