<?xml version="1.0" encoding="UTF-8" standalone="no"?>
<!-- Generator: Adobe Illustrator 14.0.0, SVG Export Plug-In . SVG Version: 6.00 Build 43363)  -->

<svg
   xmlns:dc="http://purl.org/dc/elements/1.1/"
   xmlns:cc="http://creativecommons.org/ns#"
   xmlns:rdf="http://www.w3.org/1999/02/22-rdf-syntax-ns#"
   xmlns:svg="http://www.w3.org/2000/svg"
   xmlns="http://www.w3.org/2000/svg"
   xmlns:sodipodi="http://sodipodi.sourceforge.net/DTD/sodipodi-0.dtd"
   xmlns:inkscape="http://www.inkscape.org/namespaces/inkscape"
   version="1.1"
   id="Layer_1"
   x="0px"
   y="0px"
   width="18"
   height="18"
   viewBox="0 0 18 18"
   enable-background="new 0 0 50 50"
   xml:space="preserve"
   inkscape:version="0.91 r13725"
   sodipodi:docname="Junction.svg"><metadata
     id="metadata24"><rdf:RDF><cc:Work
         rdf:about=""><dc:format>image/svg+xml</dc:format><dc:type
           rdf:resource="http://purl.org/dc/dcmitype/StillImage" /><dc:title /></cc:Work></rdf:RDF></metadata><defs
     id="defs22" /><sodipodi:namedview
     pagecolor="#ffffff"
     bordercolor="#666666"
     borderopacity="1"
     objecttolerance="10"
     gridtolerance="10"
     guidetolerance="10"
     inkscape:pageopacity="0"
     inkscape:pageshadow="2"
     inkscape:window-width="2560"
     inkscape:window-height="1315"
     id="namedview20"
     showgrid="false"
     inkscape:zoom="13.350176"
     inkscape:cx="11.966464"
     inkscape:cy="25"
     inkscape:window-x="1680"
     inkscape:window-y="0"
     inkscape:window-maximized="1"
     inkscape:current-layer="Layer_1" /><circle
     cx="9"
     cy="9"
     id="circle3"
     style="fill:#010101;stroke:none"
     r="7.5" /><linearGradient
     id="SVGID_1_"
     gradientUnits="userSpaceOnUse"
     x1="854.30371"
     y1="-1074.5259"
     x2="879.26978"
     y2="-1099.4921"
     gradientTransform="matrix(0.30530357,0,0,-0.30530357,-255.79986,-323.03503)"><stop
       offset="0"
       style="stop-color:#FFFFFF"
       id="stop6" /><stop
       offset="1"
       style="stop-color:#FFFFFF;stop-opacity:0"
       id="stop8" /></linearGradient><circle
     enable-background="new    "
     cx="9"
     cy="9"
     id="circle10"
     style="opacity:0.3;fill:url(#SVGID_1_)"
     r="7" /><g
     enable-background="new    "
     id="g12"
     transform="matrix(0.30923286,0,0,0.30923286,1.7539936,1.655584)"><path
       d="m 34.89,6.367 8.312,0 0,26.143 c 0,3.419 -0.3,6.047 -0.902,7.888 -0.809,2.404 -2.272,4.334 -4.395,5.789 -2.124,1.456 -4.92,2.185 -8.394,2.185 -4.075,0 -7.212,-1.143 -9.409,-3.424 -2.197,-2.282 -3.306,-5.63 -3.324,-10.042 l 7.858,-0.902 c 0.096,2.367 0.441,4.038 1.042,5.016 0.903,1.483 2.272,2.224 4.113,2.224 1.859,0 3.174,-0.53 3.944,-1.591 0.771,-1.062 1.154,-3.264 1.154,-6.605 l 0,-26.681 10e-4,0 z"
       id="path14"
       inkscape:connector-curvature="0"
       style="fill:#010101" /></g><g
     enable-background="new    "
     id="g16"
     transform="matrix(0.30923286,0,0,0.30923286,1.6884787,1.5900687)"><path
       d="m 34.89,6.006 8.31,0 0,26.143 c 0,3.419 -0.3,6.047 -0.901,7.888 -0.809,2.403 -2.272,4.333 -4.395,5.789 -2.124,1.455 -4.921,2.184 -8.395,2.184 -4.076,0 -7.212,-1.142 -9.409,-3.423 -2.198,-2.282 -3.306,-5.629 -3.324,-10.042 l 7.859,-0.902 c 0.095,2.367 0.441,4.037 1.042,5.015 0.903,1.484 2.272,2.225 4.113,2.225 1.859,0 3.174,-0.53 3.944,-1.592 0.771,-1.061 1.154,-3.263 1.154,-6.604 l 0,-26.681 0.002,0 z"
       id="path18"
       inkscape:connector-curvature="0"
       style="fill:none;stroke:#ffffff;stroke-width:2.67540598;stroke-miterlimit:4;stroke-dasharray:none" /></g></svg>