<?xml version="1.0" encoding="UTF-8" standalone="no"?>
<!-- Generator: Adobe Illustrator 14.0.0, SVG Export Plug-In . SVG Version: 6.00 Build 43363)  -->

<svg
   xmlns:dc="http://purl.org/dc/elements/1.1/"
   xmlns:cc="http://creativecommons.org/ns#"
   xmlns:rdf="http://www.w3.org/1999/02/22-rdf-syntax-ns#"
   xmlns:svg="http://www.w3.org/2000/svg"
   xmlns="http://www.w3.org/2000/svg"
   xmlns:sodipodi="http://sodipodi.sourceforge.net/DTD/sodipodi-0.dtd"
   xmlns:inkscape="http://www.inkscape.org/namespaces/inkscape"
   version="1.1"
   id="Layer_1"
   x="0px"
   y="0px"
   width="50px"
   height="50px"
   viewBox="0 0 50 50"
   enable-background="new 0 0 50 50"
   xml:space="preserve"
   inkscape:version="0.91 r13725"
   sodipodi:docname="State2.svg"><metadata
     id="metadata29"><rdf:RDF><cc:Work
         rdf:about=""><dc:format>image/svg+xml</dc:format><dc:type
           rdf:resource="http://purl.org/dc/dcmitype/StillImage" /></cc:Work></rdf:RDF></metadata><defs
     id="defs27" /><sodipodi:namedview
     pagecolor="#ffffff"
     bordercolor="#666666"
     borderopacity="1"
     objecttolerance="10"
     gridtolerance="10"
     guidetolerance="10"
     inkscape:pageopacity="0"
     inkscape:pageshadow="2"
     inkscape:window-width="1594"
     inkscape:window-height="952"
     id="namedview25"
     showgrid="false"
     inkscape:zoom="4.72"
     inkscape:cx="58.898305"
     inkscape:cy="25"
     inkscape:window-x="2314"
     inkscape:window-y="305"
     inkscape:window-maximized="0"
     inkscape:current-layer="Layer_1" /><g
     id="g3"><linearGradient
       id="SVGID_1_"
       gradientUnits="userSpaceOnUse"
       x1="1126.1406"
       y1="1508.5762"
       x2="1171.8447"
       y2="1508.5762"
       gradientTransform="matrix(1 0 0 1 -1124 -1484)"><stop
         offset="0"
         style="stop-color:#68A7DB"
         id="stop6" /><stop
         offset="1"
         style="stop-color:#3E86C7"
         id="stop8" /></linearGradient><path
       fill="url(#SVGID_1_)"
       d="M2.141,28.859c0,6.075,4.925,11,11,11h23.704c6.075,0,11-4.925,11-11v-8.565c0-6.075-4.925-11-11-11   H13.141c-6.075,0-11,4.925-11,11V28.859z"
       id="path10" /><path
       fill="none"
       stroke="#1C5E99"
       stroke-width="3"
       d="M2.141,28.859c0,6.075,4.925,11,11,11h23.704c6.075,0,11-4.925,11-11   v-8.565c0-6.075-4.925-11-11-11H13.141c-6.075,0-11,4.925-11,11V28.859z"
       id="path12" /></g><g
     opacity="0.2"
     enable-background="new    "
     id="g14"><linearGradient
       id="SVGID_2_"
       gradientUnits="userSpaceOnUse"
       x1="1126.1475"
       y1="1508.5762"
       x2="1171.8516"
       y2="1508.5762"
       gradientTransform="matrix(1 0 0 1 -1124 -1484)"><stop
         offset="0"
         style="stop-color:#FFFFFF"
         id="stop17" /><stop
         offset="1"
         style="stop-color:#FFFFFF;stop-opacity:0"
         id="stop19" /></linearGradient><path
       fill="url(#SVGID_2_)"
       d="M2.147,28.859c0,6.075,4.925,11,11,11h23.704c6.075,0,11-4.925,11-11v-8.565c0-6.075-4.925-11-11-11   H13.147c-6.075,0-11,4.925-11,11V28.859z"
       id="path21" /></g><rect
     x="14.67"
     y="15.050762"
     width="20.66"
     height="5.1712375"
     id="rect23"
     style="fill:#3f4f56;fill-opacity:1" /></svg>