<?xml version="1.0" encoding="UTF-8" standalone="no"?>
<!-- Generator: Adobe Illustrator 14.0.0, SVG Export Plug-In . SVG Version: 6.00 Build 43363)  -->

<svg
   xmlns:dc="http://purl.org/dc/elements/1.1/"
   xmlns:cc="http://creativecommons.org/ns#"
   xmlns:rdf="http://www.w3.org/1999/02/22-rdf-syntax-ns#"
   xmlns:svg="http://www.w3.org/2000/svg"
   xmlns="http://www.w3.org/2000/svg"
   xmlns:sodipodi="http://sodipodi.sourceforge.net/DTD/sodipodi-0.dtd"
   xmlns:inkscape="http://www.inkscape.org/namespaces/inkscape"
   version="1.1"
   id="Layer_1"
   x="0px"
   y="0px"
   width="50px"
   height="50px"
   viewBox="0 0 50 50"
   enable-background="new 0 0 50 50"
   xml:space="preserve"
   inkscape:version="0.91 r13725"
   sodipodi:docname="SubmachineState2.svg"><metadata
     id="metadata35"><rdf:RDF><cc:Work
         rdf:about=""><dc:format>image/svg+xml</dc:format><dc:type
           rdf:resource="http://purl.org/dc/dcmitype/StillImage" /></cc:Work></rdf:RDF></metadata><defs
     id="defs33" /><sodipodi:namedview
     pagecolor="#ffffff"
     bordercolor="#666666"
     borderopacity="1"
     objecttolerance="10"
     gridtolerance="10"
     guidetolerance="10"
     inkscape:pageopacity="0"
     inkscape:pageshadow="2"
     inkscape:window-width="1280"
     inkscape:window-height="646"
     id="namedview31"
     showgrid="false"
     inkscape:zoom="13.350176"
     inkscape:cx="31.958981"
     inkscape:cy="25"
     inkscape:window-x="1963"
     inkscape:window-y="512"
     inkscape:window-maximized="0"
     inkscape:current-layer="Layer_1" /><g
     id="g3"><linearGradient
       id="SVGID_1_"
       gradientUnits="userSpaceOnUse"
       x1="1407.1445"
       y1="-1830.0005"
       x2="1452.8496"
       y2="-1830.0005"
       gradientTransform="matrix(1 0 0 -1 -1405 -1805)"><stop
         offset="0"
         style="stop-color:#68A7DB"
         id="stop6" /><stop
         offset="1"
         style="stop-color:#3E86C7"
         id="stop8" /></linearGradient><path
       fill="url(#SVGID_1_)"
       d="M2.145,29.283c0,6.074,4.926,11,11,11H36.85c6.074,0,11-4.926,11-11v-8.565c0-6.075-4.926-11-11-11   H13.145c-6.074,0-11,4.925-11,11V29.283z"
       id="path10" /><path
       fill="none"
       stroke="#1C5E99"
       stroke-width="3"
       d="M2.145,29.283c0,6.074,4.926,11,11,11H36.85c6.074,0,11-4.926,11-11v-8.565   c0-6.075-4.926-11-11-11H13.145c-6.074,0-11,4.925-11,11V29.283z"
       id="path12" /></g><g
     opacity="0.2"
     enable-background="new    "
     id="g14"><linearGradient
       id="SVGID_2_"
       gradientUnits="userSpaceOnUse"
       x1="1407.1504"
       y1="-1830.0005"
       x2="1452.8555"
       y2="-1830.0005"
       gradientTransform="matrix(1 0 0 -1 -1405 -1805)"><stop
         offset="0"
         style="stop-color:#FFFFFF"
         id="stop17" /><stop
         offset="1"
         style="stop-color:#FFFFFF;stop-opacity:0"
         id="stop19" /></linearGradient><path
       fill="url(#SVGID_2_)"
       d="M2.15,29.283c0,6.074,4.926,11,11,11h23.705c6.074,0,11-4.926,11-11v-8.565c0-6.075-4.926-11-11-11   H13.15c-6.074,0-11,4.925-11,11V29.283z"
       id="path21" /></g><rect
     x="13.358"
     y="13.652"
     width="23.290001"
     height="3.8291078"
     id="rect23"
     style="fill:#3f4b52;fill-opacity:1" /><rect
     x="10.181842"
     y="28.149313"
     width="11.234822"
     height="5.3011971"
     id="rect25"
     style="fill:none;stroke:#2f3134;stroke-width:2.54498172" /><rect
     x="28.582064"
     y="28.149313"
     width="11.236094"
     height="5.3011971"
     id="rect27"
     style="fill:none;stroke:#2f3134;stroke-width:2.54498172" /><line
     x1="21.417936"
     y1="30.803728"
     x2="28.582064"
     y2="30.803728"
     id="line29"
     style="fill:none;stroke:#2f3134;stroke-width:2.54498172" /></svg>